# xmcd
#
# Track frame offsets: 
#        150
#        15221
#        30984
#        46674
#        66641
#        81309
#        98533
#        112270
#        132218
#        149183
#        172211
#
# Disc length: 2496 seconds
#
# Revision: 7
# Processed by: cddbd v1.4PL0 Copyright (c) Steve Scherf et al.
# Submitted via: ExactAudioCopy v0.90b4
#
DISCID=9709be0b
DTITLE=WAITS Tom - The Heart Of Saturday Night
DYEAR=1974
DGENRE=Soul
TTITLE0=New Coat Of Paint
TTITLE1=San Diego Serenade
TTITLE2=Semi Suite
TTITLE3=Shiver Me Timbers
TTITLE4=Diamonds On My Windshield (Looking For)
TTITLE5=The Heart Of Saturday Night
TTITLE6=Fumblin' With The Blues
TTITLE7=Please Call Me Baby
TTITLE8=Depot Depot
TTITLE9=Drunk On The Moon
TTITLE10=The Ghosts Of Saturday Night (After Hours At Napoleone's Pizz
TTITLE10=a House)
EXTD=d:Mike Lempriere  mikel@zso.dec.com  06-Jan-1997 YEAR: 1974 ID3G:
EXTD=0
EXTT0=
EXTT1=
EXTT2=
EXTT3=
EXTT4=
EXTT5=
EXTT6=
EXTT7=
EXTT8=
EXTT9=
EXTT10=
PLAYORDER=
